<svg width="193" height="53" viewBox="0 0 193 53" fill="none" xmlns="http://www.w3.org/2000/svg">
    <g clip-path="url(#clip0_58_42)">
        <path
            d="M7.95 0C12.3407 0 15.9 3.55934 15.9 7.95V8.37301C15.9 10.7574 14.8542 13.0013 13.2058 14.7241C5.02508 23.2738 0 34.8725 0 47.6411V7.95C0 3.55933 3.55934 0 7.95 0Z"
            fill="url(#paint0_linear_58_42)" />
        <path
            d="M40.1765 41.1382C43.6397 45.7605 40.3414 52.353 34.5656 52.353C32.3027 52.353 30.1789 51.2608 28.8627 49.42L16.5706 32.2302C16.1203 31.6005 15.5916 31.0269 15.1476 30.3927C11.0983 24.6084 16.0049 12.7707 23.6945 19.4356C24.2004 19.8741 24.6335 20.3929 25.0349 20.9287L40.1765 41.1382Z"
            fill="url(#paint1_linear_58_42)" />
        <path style="mix-blend-mode:multiply"
            d="M27.138 23.742C23.79 26.637 21.084 30.252 19.26 34.344C19.107 34.686 18.96 35.031 18.819 35.379L15.891 31.284C17.835 26.925 20.778 23.109 24.429 20.124L27.138 23.742Z"
            fill="url(#paint2_linear_58_42)" />
        <path
            d="M41.841 7.00889C41.841 3.20731 38.6544 0.120279 34.9291 0.877837C32.9148 1.28746 30.951 1.83602 29.049 2.514C23.658 4.428 18.753 7.371 14.577 11.112C5.631 19.104 0 30.735 0 43.677V46.1494C0 49.5756 2.77744 52.353 6.20358 52.353C10.3519 52.353 13.3262 48.309 13.2608 44.1612C13.2583 44.0001 13.257 43.8387 13.257 43.677C13.257 40.659 13.719 37.602 14.577 34.791C14.943 33.585 15.384 32.415 15.894 31.281C17.838 26.922 20.781 23.106 24.432 20.121C27.042 17.985 30.015 16.272 33.246 15.093C34.488 14.637 35.766 14.265 37.08 13.974C39.7187 13.391 41.841 11.2014 41.841 8.49903V7.00889Z"
            fill="url(#paint3_linear_58_42)" />
    </g>
    <path
        d="M65.019 41.1765C64.389 41.1765 63.834 40.9515 63.354 40.5015C62.904 40.0515 62.679 39.4965 62.679 38.8365V8.37151C62.679 7.71151 62.904 7.15651 63.354 6.70651C63.834 6.25651 64.389 6.03151 65.019 6.03151C65.679 6.03151 66.234 6.25651 66.684 6.70651C67.134 7.15651 67.359 7.71151 67.359 8.37151V21.8715L82.254 6.97651C82.614 6.61651 82.944 6.37651 83.244 6.25651C83.544 6.10651 83.859 6.03151 84.189 6.03151C84.939 6.03151 85.479 6.25651 85.809 6.70651C86.139 7.15651 86.259 7.69651 86.169 8.32651C86.079 8.92651 85.794 9.48151 85.314 9.99151L73.839 21.5115L85.539 37.4415C85.899 37.9515 86.049 38.5065 85.989 39.1065C85.929 39.6765 85.719 40.1715 85.359 40.5915C84.999 40.9815 84.519 41.1765 83.919 41.1765C83.079 41.1765 82.434 40.8465 81.984 40.1865L70.599 24.7515L67.359 27.9915V38.8365C67.359 39.4965 67.134 40.0515 66.684 40.5015C66.234 40.9515 65.679 41.1765 65.019 41.1765ZM101.231 41.4015C99.1614 41.4015 97.3014 40.9665 95.6514 40.0965C94.0314 39.1965 92.7414 37.8915 91.7814 36.1815C90.8514 34.4715 90.3864 32.3715 90.3864 29.8815V18.8115C90.3864 18.1515 90.5964 17.6115 91.0164 17.1915C91.4664 16.7415 92.0214 16.5165 92.6814 16.5165C93.3414 16.5165 93.8814 16.7415 94.3014 17.1915C94.7514 17.6115 94.9764 18.1515 94.9764 18.8115V29.8815C94.9764 31.5615 95.2914 32.9565 95.9214 34.0665C96.5514 35.1465 97.4064 35.9565 98.4864 36.4965C99.5664 37.0065 100.781 37.2615 102.131 37.2615C103.421 37.2615 104.561 37.0065 105.551 36.4965C106.571 35.9865 107.381 35.2965 107.981 34.4265C108.581 33.5565 108.881 32.5815 108.881 31.5015H111.716C111.716 33.3615 111.251 35.0415 110.321 36.5415C109.421 38.0415 108.176 39.2265 106.586 40.0965C105.026 40.9665 103.241 41.4015 101.231 41.4015ZM111.176 41.1765C110.516 41.1765 109.961 40.9665 109.511 40.5465C109.091 40.0965 108.881 39.5415 108.881 38.8815V18.8115C108.881 18.1215 109.091 17.5665 109.511 17.1465C109.961 16.7265 110.516 16.5165 111.176 16.5165C111.866 16.5165 112.421 16.7265 112.841 17.1465C113.261 17.5665 113.471 18.1215 113.471 18.8115V38.8815C113.471 39.5415 113.261 40.0965 112.841 40.5465C112.421 40.9665 111.866 41.1765 111.176 41.1765ZM124.21 41.1765C123.64 41.1765 123.13 40.9665 122.68 40.5465C122.23 40.1265 122.005 39.5715 122.005 38.8815V16.6965C122.005 14.5365 122.425 12.6615 123.265 11.0715C124.135 9.48151 125.335 8.25151 126.865 7.38151C128.395 6.48151 130.165 6.03151 132.175 6.03151C132.835 6.03151 133.375 6.22651 133.795 6.61651C134.245 7.00651 134.47 7.50151 134.47 8.10151C134.47 8.67151 134.245 9.16651 133.795 9.58651C133.375 9.97651 132.835 10.1715 132.175 10.1715C131.065 10.1715 130.09 10.4265 129.25 10.9365C128.41 11.4465 127.75 12.1515 127.27 13.0515C126.82 13.9515 126.595 15.0165 126.595 16.2465V38.8815C126.595 39.5715 126.385 40.1265 125.965 40.5465C125.545 40.9665 124.96 41.1765 124.21 41.1765ZM120.07 21.3315C119.44 21.3315 118.93 21.1515 118.54 20.7915C118.15 20.4315 117.955 19.9815 117.955 19.4415C117.955 18.8415 118.15 18.3615 118.54 18.0015C118.93 17.6415 119.44 17.4615 120.07 17.4615H131.185C131.815 17.4615 132.325 17.6415 132.715 18.0015C133.105 18.3615 133.3 18.8415 133.3 19.4415C133.3 19.9815 133.105 20.4315 132.715 20.7915C132.325 21.1515 131.815 21.3315 131.185 21.3315H120.07ZM148.429 41.4015C146.359 41.4015 144.499 40.9665 142.849 40.0965C141.229 39.1965 139.939 37.8915 138.979 36.1815C138.049 34.4715 137.584 32.3715 137.584 29.8815V18.8115C137.584 18.1515 137.794 17.6115 138.214 17.1915C138.664 16.7415 139.219 16.5165 139.879 16.5165C140.539 16.5165 141.079 16.7415 141.499 17.1915C141.949 17.6115 142.174 18.1515 142.174 18.8115V29.8815C142.174 31.5615 142.489 32.9565 143.119 34.0665C143.749 35.1465 144.604 35.9565 145.684 36.4965C146.764 37.0065 147.979 37.2615 149.329 37.2615C150.619 37.2615 151.759 37.0065 152.749 36.4965C153.769 35.9865 154.579 35.2965 155.179 34.4265C155.779 33.5565 156.079 32.5815 156.079 31.5015H158.914C158.914 33.3615 158.449 35.0415 157.519 36.5415C156.619 38.0415 155.374 39.2265 153.784 40.0965C152.224 40.9665 150.439 41.4015 148.429 41.4015ZM158.374 41.1765C157.714 41.1765 157.159 40.9665 156.709 40.5465C156.289 40.0965 156.079 39.5415 156.079 38.8815V18.8115C156.079 18.1215 156.289 17.5665 156.709 17.1465C157.159 16.7265 157.714 16.5165 158.374 16.5165C159.064 16.5165 159.619 16.7265 160.039 17.1465C160.459 17.5665 160.669 18.1215 160.669 18.8115V38.8815C160.669 39.5415 160.459 40.0965 160.039 40.5465C159.619 40.9665 159.064 41.1765 158.374 41.1765ZM174.602 41.1765C173.282 41.1765 172.112 40.8165 171.092 40.0965C170.072 39.3765 169.277 38.4015 168.707 37.1715C168.137 35.9115 167.852 34.4715 167.852 32.8515V8.28151C167.852 7.62151 168.062 7.08151 168.482 6.66151C168.902 6.24151 169.442 6.03151 170.102 6.03151C170.762 6.03151 171.302 6.24151 171.722 6.66151C172.142 7.08151 172.352 7.62151 172.352 8.28151V32.8515C172.352 33.9615 172.562 34.8765 172.982 35.5965C173.402 36.3165 173.942 36.6765 174.602 36.6765H175.727C176.327 36.6765 176.807 36.8865 177.167 37.3065C177.557 37.7265 177.752 38.2665 177.752 38.9265C177.752 39.5865 177.467 40.1265 176.897 40.5465C176.327 40.9665 175.592 41.1765 174.692 41.1765H174.602ZM184.989 41.1765C184.329 41.1765 183.774 40.9665 183.324 40.5465C182.904 40.0965 182.694 39.5415 182.694 38.8815V18.8565C182.694 18.1665 182.904 17.6115 183.324 17.1915C183.774 16.7715 184.329 16.5615 184.989 16.5615C185.679 16.5615 186.234 16.7715 186.654 17.1915C187.074 17.6115 187.284 18.1665 187.284 18.8565V38.8815C187.284 39.5415 187.074 40.0965 186.654 40.5465C186.234 40.9665 185.679 41.1765 184.989 41.1765ZM184.989 12.5565C184.179 12.5565 183.474 12.2715 182.874 11.7015C182.304 11.1015 182.019 10.3965 182.019 9.58651C182.019 8.77651 182.304 8.08651 182.874 7.51651C183.474 6.91651 184.179 6.61651 184.989 6.61651C185.799 6.61651 186.489 6.91651 187.059 7.51651C187.659 8.08651 187.959 8.77651 187.959 9.58651C187.959 10.3965 187.659 11.1015 187.059 11.7015C186.489 12.2715 185.799 12.5565 184.989 12.5565Z"
        fill="#202020" />
    <defs>
        <linearGradient id="paint0_linear_58_42" x1="-8.60609" y1="5.55306" x2="7.22519" y2="23.0205"
            gradientUnits="userSpaceOnUse">
            <stop stop-color="#4CC1FF" />
            <stop offset="1" stop-color="#205CE2" />
        </linearGradient>
        <linearGradient id="paint1_linear_58_42" x1="43.1759" y1="57.354" x2="58.7535" y2="48.5481"
            gradientUnits="userSpaceOnUse">
            <stop offset="0.34" stop-color="#4CC1FF" />
            <stop offset="1" stop-color="#205CE2" />
        </linearGradient>
        <linearGradient id="paint2_linear_58_42" x1="23.664" y1="29.679" x2="19.62" y2="25.854"
            gradientUnits="userSpaceOnUse">
            <stop offset="0.34" stop-color="#4CC1FF" stop-opacity="0" />
            <stop offset="1" stop-color="#1D48FF" />
        </linearGradient>
        <linearGradient id="paint3_linear_58_42" x1="9.93" y1="64.713" x2="27.78" y2="0.987"
            gradientUnits="userSpaceOnUse">
            <stop stop-color="#4CCEF7" />
            <stop offset="1" stop-color="#91FFDB" />
        </linearGradient>
        <clipPath id="clip0_58_42">
            <rect width="48.579" height="52.353" fill="white" />
        </clipPath>
    </defs>
</svg>